<svg width="14" height="14" viewBox="0 0 14 14" fill="none" xmlns="http://www.w3.org/2000/svg">
    <path d="M6.20323 13.9977C5.55981 13.9977 4.98931 13.6121 4.77114 12.9891L4.44739 12.0219L4.18139 12.1112C3.39564 12.376 3.23289 12.4308 2.96923 12.3929C2.38998 12.3713 1.83581 11.9636 1.63514 11.382C1.37848 10.5834 1.80664 9.7335 2.58714 9.47858L3.49831 9.17525L2.89048 7.36808L2.62156 7.45791C1.83698 7.72275 1.67364 7.77875 1.41114 7.73908C0.830726 7.71691 0.276559 7.30916 0.0770591 6.72758C0.0758924 6.72466 0.0747258 6.72175 0.0735591 6.71825C-0.179024 5.92725 0.249726 5.07791 1.02906 4.82358L1.93731 4.52258L1.61589 3.563C1.36156 2.76616 1.78973 1.91683 2.56848 1.66308C3.36123 1.40641 4.21173 1.83283 4.46781 2.61391L4.78806 3.5735L6.69498 2.93708L6.37356 1.97516C6.11864 1.17833 6.54739 0.328997 7.32673 0.075247C8.11889 -0.180836 8.96998 0.244414 9.22548 1.02666L9.54631 1.98625L10.4621 1.68175C11.2561 1.42391 12.1077 1.84975 12.3632 2.63141C12.617 3.42533 12.1882 4.27466 11.4089 4.52841L10.4983 4.83175L11.1067 6.6395L12.022 6.335C12.8188 6.076 13.6687 6.503 13.9242 7.28466C14.0514 7.672 14.0187 8.08441 13.8332 8.44608C13.6518 8.799 13.3456 9.05858 12.9705 9.177L12.0622 9.47916L12.3831 10.4405C12.638 11.2367 12.2092 12.0867 11.4305 12.3404C10.6144 12.5737 9.80414 12.1683 9.53406 11.3977L9.21089 10.43L7.29873 11.0693L7.62014 12.0312C7.87506 12.8281 7.44631 13.6774 6.66698 13.9312C6.51064 13.9761 6.35489 13.9977 6.20323 13.9977ZM4.72389 11.0302C4.90648 11.0302 5.07739 11.1457 5.13864 11.3289L5.59889 12.7056C5.69398 12.9768 6.01364 13.2072 6.41089 13.0947C6.71889 12.9937 6.89564 12.6367 6.78831 12.3031L6.33039 10.9317C6.25339 10.7024 6.37706 10.4545 6.60631 10.3781L9.34856 9.46108C9.45997 9.42491 9.57898 9.4325 9.68281 9.485C9.78664 9.53691 9.86539 9.62791 9.90214 9.73816L10.3618 11.1148C10.4569 11.3855 10.7748 11.6188 11.175 11.5033C11.4824 11.403 11.6586 11.046 11.5518 10.7117L11.0945 9.34033C11.0577 9.23066 11.0659 9.10991 11.1178 9.00608C11.1697 8.90225 11.2607 8.8235 11.3716 8.78675L12.7016 8.344C12.8585 8.29441 12.9816 8.18883 13.0556 8.04533C13.1338 7.89308 13.1472 7.71925 13.0936 7.55591C12.9874 7.23216 12.6316 7.05658 12.2961 7.16508L10.9702 7.60666C10.7392 7.68425 10.4948 7.55941 10.4172 7.33133L9.52998 4.69408C9.49323 4.58383 9.50139 4.46308 9.55331 4.35925C9.60523 4.25483 9.69623 4.17608 9.80648 4.13933L11.1359 3.69658C11.462 3.59041 11.6381 3.23341 11.5314 2.89916C11.4264 2.57775 11.0671 2.40275 10.7369 2.51183L9.40922 2.95341C9.18056 3.02925 8.93323 2.90558 8.85681 2.67691L8.39656 1.30025C8.28923 0.972997 7.93048 0.797997 7.59973 0.90708C7.27656 1.01208 7.10039 1.36908 7.20714 1.70333L7.66506 3.07475C7.70181 3.18441 7.69364 3.30516 7.64173 3.409C7.58981 3.51283 7.49881 3.59158 7.38856 3.62833L4.65039 4.54183C4.54014 4.57916 4.41998 4.57041 4.31614 4.5185C4.21289 4.46658 4.13356 4.37558 4.09681 4.26533L3.63714 2.88866C3.53039 2.56258 3.17398 2.387 2.83914 2.4955C2.51656 2.6005 2.34098 2.9575 2.44714 3.29175L2.90506 4.66258C2.94181 4.77283 2.93364 4.89358 2.88173 4.99741C2.82981 5.10125 2.73823 5.18 2.62856 5.21675L1.30089 5.656C0.977142 5.76158 0.801559 6.11566 0.904809 6.44816C0.988809 6.68558 1.22973 6.85825 1.49223 6.86933C1.59664 6.88566 1.85798 6.79233 2.34098 6.629L3.02698 6.39916C3.25564 6.32508 3.50239 6.447 3.57939 6.67508L4.46664 9.31233C4.50339 9.42258 4.49523 9.54333 4.44331 9.64716C4.39139 9.75158 4.30039 9.83033 4.18956 9.86708L2.85956 10.3092C2.53348 10.4154 2.35731 10.7724 2.46406 11.1055C2.54398 11.3365 2.78606 11.5121 3.04973 11.5226C3.16114 11.536 3.43356 11.4392 3.90081 11.2817L4.58506 11.0518C4.63114 11.0372 4.67839 11.0302 4.72389 11.0302ZM6.06381 9.24058C5.88123 9.24058 5.71089 9.12508 5.64906 8.9425L4.76181 6.29941C4.72506 6.18975 4.73323 6.069 4.78456 5.96516C4.83648 5.86133 4.92748 5.78258 5.03773 5.74525L7.77706 4.82825C8.00689 4.753 8.25364 4.8755 8.33064 5.10416L9.21789 7.74666C9.25464 7.85633 9.24648 7.97708 9.19514 8.08091C9.14323 8.18475 9.05223 8.26408 8.94198 8.30083L6.20264 9.21783C6.15656 9.23358 6.10989 9.24058 6.06381 9.24058ZM5.73014 6.4365L6.33914 8.2495L8.24839 7.61016L7.63939 5.79716L5.73014 6.4365Z" fill="#D85B53"/>
    </svg>
    